<svg xmlns="http://www.w3.org/2000/svg" xmlns:xlink="http://www.w3.org/1999/xlink" width="500" zoomAndPan="magnify" viewBox="0 0 375 374.999991" height="500" preserveAspectRatio="xMidYMid meet" version="1.0"><defs><filter x="0%" y="0%" width="100%" height="100%" id="6bf44915da"><feColorMatrix values="0 0 0 0 1 0 0 0 0 1 0 0 0 0 1 0 0 0 1 0" color-interpolation-filters="sRGB"/></filter><mask id="7fad979f3c"><g filter="url(#6bf44915da)"><rect x="-37.5" width="450" fill="#000000" y="-37.499999" height="449.999989" fill-opacity="0.102"/></g></mask><clipPath id="f748e0099c"><path d="M 0.238281 0.359375 L 10 0.359375 L 10 10.441406 L 0.238281 10.441406 Z M 0.238281 0.359375 " clip-rule="nonzero"/></clipPath><clipPath id="3ef5f150a4"><rect x="0" width="11" y="0" height="11"/></clipPath></defs><path fill="#4e7666" d="M 61.414062 201.621094 C 56.859375 208.507812 59.542969 218.304688 67.40625 223.503906 C 75.265625 228.703125 85.332031 227.335938 89.886719 220.449219 C 94.4375 213.5625 91.757812 203.765625 83.894531 198.566406 C 76.03125 193.367188 65.964844 194.738281 61.414062 201.621094 Z M 61.414062 201.621094 " fill-opacity="1" fill-rule="nonzero"/><path fill="#b4d8ca" d="M 83.597656 198.640625 C 78.847656 207.445312 75.746094 215.914062 75.785156 223.757812 C 75.804688 228.339844 76.898438 232.707031 79.363281 236.800781 C 94.925781 237.273438 110.832031 233.328125 126.808594 228.5625 C 134.605469 225.050781 140.769531 217.480469 143.457031 209.585938 C 146.960938 199.316406 144.59375 188.488281 132.308594 185.3125 C 118.191406 186.125 102.074219 190.355469 83.597656 198.640625 Z M 83.597656 198.640625 " fill-opacity="1" fill-rule="nonzero"/><path fill="#4e7666" d="M 75.785156 223.757812 C 75.804688 228.339844 76.898438 232.707031 79.363281 236.800781 C 94.925781 237.273438 110.832031 233.328125 126.808594 228.5625 C 134.605469 225.050781 140.769531 217.480469 143.457031 209.585938 C 126.058594 218.136719 103.613281 222.949219 75.785156 223.757812 Z M 75.785156 223.757812 " fill-opacity="1" fill-rule="nonzero"/><path fill="#4e7666" d="M 282.164062 213.433594 C 287.203125 218.394531 290.605469 223.820312 292.308594 229.734375 C 292.308594 229.734375 265.476562 252.03125 265.476562 252.03125 C 260.773438 247.140625 259.542969 241.457031 262.644531 234.78125 C 262.644531 234.78125 282.164062 213.433594 282.164062 213.433594 Z M 282.164062 213.433594 " fill-opacity="1" fill-rule="nonzero"/><path fill="#4e7666" d="M 285.683594 211.84375 C 285.933594 212.316406 285.886719 212.898438 285.570312 213.273438 C 285.570312 213.273438 281.601562 217.980469 281.601562 217.980469 C 281.601562 217.980469 260.394531 243.136719 260.394531 243.136719 C 238.160156 217.386719 224.300781 191.175781 238.980469 175.867188 C 240.046875 174.757812 241.261719 173.703125 242.632812 172.707031 C 259.414062 169.117188 272.980469 187.539062 285.683594 211.84375 Z M 285.683594 211.84375 " fill-opacity="1" fill-rule="nonzero"/><path fill="#b4d8ca" d="M 285.539062 213.308594 C 285.539062 213.308594 281.601562 217.980469 281.601562 217.980469 C 270.652344 195.425781 256.886719 180.21875 238.980469 175.867188 C 240.046875 174.757812 241.261719 173.703125 242.632812 172.707031 C 259.402344 169.117188 272.960938 187.515625 285.664062 211.796875 C 285.925781 212.300781 285.875 212.910156 285.539062 213.308594 Z M 285.539062 213.308594 " fill-opacity="1" fill-rule="nonzero"/><path fill="#4e7666" d="M 320.035156 282.671875 C 320.328125 284.726562 319.464844 286.675781 317.890625 287.644531 C 315.070312 289.382812 312.109375 290.898438 309.007812 292.195312 C 301.539062 295.328125 293.273438 297.199219 284.292969 297.929688 C 283.605469 297.988281 282.898438 297.75 282.328125 297.261719 C 270.199219 286.921875 261.140625 273.292969 261.199219 249.875 C 262.863281 251.261719 275.425781 241.851562 284.046875 234.027344 C 287.945312 230.488281 291.039062 227.273438 291.960938 225.519531 C 292.195312 225.074219 292.753906 225.015625 293.105469 225.40625 C 310.191406 244.671875 317.335938 263.722656 320.035156 282.671875 Z M 320.035156 282.671875 " fill-opacity="1" fill-rule="nonzero"/><path fill="#b4d8ca" d="M 317.894531 287.644531 C 315.070312 289.382812 312.109375 290.898438 309.007812 292.195312 C 305.285156 269.847656 297.824219 249.90625 284.046875 234.027344 C 287.957031 230.480469 291.050781 227.257812 291.964844 225.507812 C 292.199219 225.066406 292.75 225.011719 293.09375 225.398438 C 310.191406 244.667969 317.335938 263.71875 320.035156 282.671875 C 320.328125 284.730469 319.464844 286.675781 317.894531 287.644531 Z M 317.894531 287.644531 " fill-opacity="1" fill-rule="nonzero"/><path fill="#4e7666" d="M 288.167969 301.894531 C 299.195312 298.761719 309.5625 297.214844 317.875 300.601562 C 319.015625 301.066406 319.917969 302.125 320.242188 303.417969 C 324.503906 320.339844 318.707031 329.722656 307.890625 335.339844 C 303.507812 336.105469 301.292969 334.128906 301.941406 328.503906 C 295.300781 330.980469 292.019531 327.589844 292.179688 318.207031 C 288.605469 320.433594 286.207031 320.007812 285.511719 315.765625 C 285.222656 314.03125 285.378906 312.273438 285.867188 310.65625 C 286.414062 308.855469 286.609375 306.96875 286.371094 304.976562 C 286.203125 303.542969 286.945312 302.242188 288.167969 301.894531 Z M 288.167969 301.894531 " fill-opacity="1" fill-rule="nonzero"/><path fill="#4e7666" d="M 194.867188 282.097656 C 147.042969 281.859375 127.789062 245.222656 124.589844 188.128906 C 124.589844 188.128906 131.53125 187.25 131.53125 187.25 C 131.53125 187.25 248.65625 172.347656 248.65625 172.347656 C 249.179688 174.183594 249.660156 176.007812 250.101562 177.824219 C 263.449219 232.539062 242.058594 279.351562 194.867188 282.097656 Z M 194.867188 282.097656 " fill-opacity="1" fill-rule="nonzero"/><path fill="#b4d8ca" d="M 195.570312 264.636719 C 155.757812 264.417969 137.183594 234.785156 131.53125 187.25 C 131.53125 187.25 248.65625 172.347656 248.65625 172.347656 C 249.179688 174.183594 249.660156 176.007812 250.101562 177.824219 C 254.570312 224.789062 234.46875 262.175781 195.570312 264.636719 Z M 195.570312 264.636719 " fill-opacity="1" fill-rule="nonzero"/><path fill="#4e7666" d="M 226.773438 194.730469 C 226.773438 194.730469 239.582031 191.78125 239.582031 191.78125 C 241.203125 191.410156 242.78125 192.445312 242.851562 193.929688 C 242.851562 193.929688 244.097656 219.636719 244.097656 219.636719 C 244.148438 220.667969 243.441406 221.625 242.347656 221.972656 C 238.128906 223.316406 233.730469 223.910156 229.183594 223.917969 C 227.792969 223.921875 226.640625 222.980469 226.550781 221.742188 C 226.550781 221.742188 224.773438 197.183594 224.773438 197.183594 C 224.691406 196.050781 225.53125 195.015625 226.773438 194.730469 Z M 226.773438 194.730469 " fill-opacity="1" fill-rule="nonzero"/><path fill="#a2c2b5" d="M 227.617188 198.839844 C 227.617188 198.839844 228.054688 202.097656 228.054688 202.097656 C 228.125 202.621094 228.691406 202.972656 229.273438 202.851562 C 229.273438 202.851562 239.347656 200.757812 239.347656 200.757812 C 239.824219 200.660156 240.15625 200.269531 240.132812 199.835938 C 240.132812 199.835938 239.953125 196.132812 239.953125 196.132812 C 239.925781 195.558594 239.3125 195.164062 238.691406 195.316406 C 238.691406 195.316406 228.359375 197.859375 228.359375 197.859375 C 227.875 197.976562 227.558594 198.394531 227.617188 198.839844 Z M 227.617188 198.839844 " fill-opacity="1" fill-rule="nonzero"/><path fill="#a2c2b5" d="M 228.542969 206.847656 C 228.542969 206.847656 228.699219 210.066406 228.699219 210.066406 C 228.722656 210.578125 229.21875 210.960938 229.789062 210.910156 C 229.789062 210.910156 239.71875 210.046875 239.71875 210.046875 C 240.234375 210 240.632812 209.617188 240.636719 209.15625 C 240.636719 209.15625 240.710938 204.402344 240.710938 204.402344 C 240.71875 203.816406 240.097656 203.382812 239.457031 203.535156 C 239.457031 203.535156 229.300781 205.933594 229.300781 205.933594 C 228.839844 206.042969 228.523438 206.425781 228.542969 206.847656 Z M 228.542969 206.847656 " fill-opacity="1" fill-rule="nonzero"/><path fill="#a2c2b5" d="M 228.972656 215.703125 C 228.972656 215.703125 229.152344 219.429688 229.152344 219.429688 C 229.175781 219.945312 229.6875 220.332031 230.265625 220.269531 C 230.265625 220.269531 240.558594 219.195312 240.558594 219.195312 C 241.085938 219.140625 241.480469 218.730469 241.457031 218.257812 C 241.457031 218.257812 241.261719 214.210938 241.261719 214.210938 C 241.234375 213.683594 240.703125 213.296875 240.113281 213.375 C 240.113281 213.375 229.835938 214.769531 229.835938 214.769531 C 229.324219 214.839844 228.949219 215.242188 228.972656 215.703125 Z M 228.972656 215.703125 " fill-opacity="1" fill-rule="nonzero"/><path fill="#4e7666" d="M 125.324219 189.71875 C 149.359375 205.742188 234.1875 193.292969 248.109375 174.53125 C 249.160156 173.113281 248.316406 171.101562 246.570312 170.863281 C 217.714844 166.9375 146.796875 174.445312 125.425781 186.59375 C 124.234375 187.269531 124.183594 188.960938 125.324219 189.71875 Z M 125.324219 189.71875 " fill-opacity="1" fill-rule="nonzero"/><path fill="#4e7666" d="M 187.945312 50.898438 C 188.242188 59.710938 186.535156 66.226562 183.867188 71.632812 C 183.867188 71.632812 194.519531 70.878906 194.519531 70.878906 C 190.472656 65.503906 189.667969 58.796875 191.375 51.054688 C 191.375 51.054688 187.945312 50.898438 187.945312 50.898438 Z M 187.945312 50.898438 " fill-opacity="1" fill-rule="nonzero"/><path fill="#4e7666" d="M 200.550781 76.808594 C 200.550781 76.808594 194.792969 77.023438 194.792969 77.023438 C 194.792969 77.023438 176.355469 77.714844 176.355469 77.714844 C 177.523438 73.621094 180.703125 70.578125 189.035156 70.207031 C 190.347656 70.191406 191.585938 70.199219 192.730469 70.257812 C 197.945312 70.523438 201.210938 71.851562 200.550781 76.808594 Z M 200.550781 76.808594 " fill-opacity="1" fill-rule="nonzero"/><path fill="#b4d8ca" d="M 200.550781 76.808594 C 200.550781 76.808594 194.792969 77.023438 194.792969 77.023438 C 195.886719 75.03125 194.957031 72.734375 192.730469 70.257812 C 197.945312 70.519531 201.210938 71.851562 200.550781 76.808594 Z M 200.550781 76.808594 " fill-opacity="1" fill-rule="nonzero"/><path fill="#a2c2b5" d="M 196.914062 46.648438 C 196.738281 50.523438 193.449219 53.519531 189.574219 53.339844 C 185.699219 53.160156 182.703125 49.875 182.882812 46 C 183.0625 42.125 186.347656 39.128906 190.222656 39.308594 C 194.097656 39.484375 197.09375 42.773438 196.914062 46.648438 Z M 196.914062 46.648438 " fill-opacity="1" fill-rule="nonzero"/><path fill="#4e7666" d="M 244.628906 140.476562 C 243.890625 141.738281 242.828125 142.808594 241.507812 143.546875 C 232.066406 148.859375 222.355469 152.667969 212.398438 155.144531 C 187.425781 161.367188 160.925781 159.191406 133.378906 151.195312 C 129.234375 149.992188 126.667969 145.851562 127.417969 141.601562 C 132.117188 115.066406 142.363281 94.363281 162.03125 83.566406 C 170.027344 79.175781 179.582031 76.425781 190.949219 75.585938 C 192.410156 75.488281 193.859375 75.464844 195.292969 75.511719 C 222.582031 76.335938 244.238281 101.96875 245.769531 135.84375 C 245.84375 137.492188 245.433594 139.097656 244.628906 140.476562 Z M 244.628906 140.476562 " fill-opacity="1" fill-rule="nonzero"/><path fill="#b4d8ca" d="M 244.628906 140.476562 C 237.066406 144.191406 229.339844 146.984375 221.457031 148.945312 C 196.484375 155.167969 169.984375 152.992188 142.4375 145 C 138.292969 143.796875 135.726562 139.652344 136.476562 135.402344 C 140.394531 113.285156 148.167969 95.21875 162.03125 83.566406 C 170.027344 79.175781 179.582031 76.425781 190.949219 75.585938 C 192.410156 75.488281 193.859375 75.464844 195.292969 75.511719 C 222.582031 76.335938 244.238281 101.96875 245.769531 135.84375 C 245.84375 137.492188 245.433594 139.097656 244.628906 140.476562 Z M 244.628906 140.476562 " fill-opacity="1" fill-rule="nonzero"/><path fill="#4e7666" d="M 209.242188 96.5625 C 200.003906 91.699219 189.363281 90.664062 179.238281 93.179688 C 156.675781 98.78125 151.601562 112.527344 149.261719 127.542969 C 146.769531 148.496094 161.667969 148.679688 183.71875 140.027344 C 188.535156 138.136719 193.730469 137.609375 198.753906 138.5625 C 221.710938 142.917969 232.226562 136.28125 227.246094 117.179688 C 226.136719 112.933594 224.019531 109.027344 221.070312 105.777344 C 217.570312 101.917969 213.613281 98.867188 209.242188 96.5625 Z M 209.242188 96.5625 " fill-opacity="1" fill-rule="nonzero"/><path fill="#a2c2b5" d="M 196.800781 121.585938 C 196.96875 125.011719 192.574219 127.863281 187.371094 127.859375 C 182.171875 127.855469 178 125.089844 177.957031 121.570312 C 177.917969 118.054688 182.175781 120.914062 187.378906 120.917969 C 192.582031 120.925781 196.632812 118.160156 196.800781 121.585938 Z M 196.800781 121.585938 " fill-opacity="1" fill-rule="nonzero"/><path fill="#a2c2b5" d="M 211.054688 116.355469 C 210.855469 118.257812 209.324219 119.65625 207.636719 119.480469 C 205.949219 119.304688 204.742188 117.617188 204.941406 115.714844 C 205.140625 113.808594 206.671875 112.410156 208.359375 112.589844 C 210.046875 112.765625 211.253906 114.453125 211.054688 116.355469 Z M 211.054688 116.355469 " fill-opacity="1" fill-rule="nonzero"/><path fill="#a2c2b5" d="M 170.851562 115.976562 C 170.660156 117.890625 169.132812 119.359375 167.441406 119.257812 C 165.75 119.152344 164.535156 117.515625 164.730469 115.601562 C 164.921875 113.683594 166.449219 112.214844 168.140625 112.320312 C 169.832031 112.421875 171.046875 114.058594 170.851562 115.976562 Z M 170.851562 115.976562 " fill-opacity="1" fill-rule="nonzero"/><path fill="#4e7666" d="M 224.847656 302.964844 C 224.597656 303.363281 224.238281 303.695312 223.8125 303.921875 C 219.0625 306.40625 214.289062 308.226562 209.484375 309.398438 C 198.628906 312.046875 187.628906 311.347656 176.488281 307.410156 C 175.949219 307.222656 175.484375 306.871094 175.167969 306.417969 C 173.4375 303.949219 172.808594 301.4375 173.222656 298.890625 C 173.449219 297.46875 174.886719 296.503906 176.394531 296.746094 C 188.046875 298.621094 199.515625 298.433594 210.785156 295.949219 C 214.78125 295.074219 218.75 293.90625 222.695312 292.441406 C 224.335938 291.835938 226.164062 292.835938 226.40625 294.476562 C 226.875 297.597656 226.429688 300.449219 224.847656 302.964844 Z M 224.847656 302.964844 " fill-opacity="1" fill-rule="nonzero"/><path fill="#b4d8ca" d="M 224.847656 302.964844 C 224.597656 303.363281 224.238281 303.695312 223.8125 303.921875 C 219.0625 306.40625 214.289062 308.226562 209.484375 309.398438 C 214.070312 305.53125 215.011719 301.125 210.785156 295.949219 C 214.78125 295.074219 218.75 293.90625 222.695312 292.441406 C 224.335938 291.835938 226.164062 292.835938 226.40625 294.476562 C 226.875 297.597656 226.429688 300.449219 224.847656 302.964844 Z M 224.847656 302.964844 " fill-opacity="1" fill-rule="nonzero"/><path fill="#4e7666" d="M 220.621094 322.070312 C 220.527344 322.617188 220.382812 323.167969 220.179688 323.714844 C 219.617188 325.273438 218.320312 326.511719 216.691406 327.105469 C 214.421875 327.933594 212.105469 328.644531 209.746094 329.253906 C 203.308594 330.910156 196.550781 331.75 189.484375 331.816406 C 187.039062 331.839844 184.714844 330.769531 183.257812 328.914062 C 182.503906 327.960938 181.996094 327.039062 181.765625 326.152344 C 181.222656 324.097656 182.867188 322.101562 185.109375 322.042969 C 194.066406 321.800781 202.601562 321.078125 210.527344 319.644531 C 212.523438 319.289062 214.476562 318.882812 216.386719 318.429688 C 218.769531 317.859375 220.988281 319.773438 220.621094 322.070312 Z M 220.621094 322.070312 " fill-opacity="1" fill-rule="nonzero"/><path fill="#b4d8ca" d="M 220.621094 322.070312 C 220.527344 322.617188 220.382812 323.167969 220.179688 323.714844 C 219.617188 325.273438 218.320312 326.511719 216.691406 327.105469 C 214.421875 327.933594 212.105469 328.644531 209.746094 329.253906 C 211.523438 326.40625 211.972656 323.25 210.527344 319.644531 C 212.523438 319.289062 214.476562 318.882812 216.386719 318.429688 C 218.769531 317.859375 220.988281 319.773438 220.621094 322.070312 Z M 220.621094 322.070312 " fill-opacity="1" fill-rule="nonzero"/><path fill="#a2c2b5" d="M 267.578125 99.039062 C 267.578125 99.039062 314.054688 100.378906 314.054688 100.378906 C 325.390625 100.707031 334.84375 91.785156 335.167969 80.453125 C 335.167969 80.453125 335.445312 70.9375 335.445312 70.9375 C 335.769531 59.605469 326.847656 50.152344 315.515625 49.824219 C 315.515625 49.824219 269.035156 48.484375 269.035156 48.484375 C 257.703125 48.15625 248.25 57.078125 247.921875 68.410156 C 247.921875 68.410156 247.648438 77.925781 247.648438 77.925781 C 247.320312 89.257812 256.242188 98.710938 267.578125 99.039062 Z M 267.578125 99.039062 " fill-opacity="1" fill-rule="nonzero"/><path fill="#a2c2b5" d="M 252.359375 78.328125 C 252.359375 78.328125 243.390625 96.824219 243.390625 96.824219 C 242.546875 98.566406 243.914062 100.566406 245.84375 100.410156 C 245.84375 100.410156 269.964844 98.453125 269.964844 98.453125 C 269.964844 98.453125 252.359375 78.328125 252.359375 78.328125 Z M 252.359375 78.328125 " fill-opacity="1" fill-rule="nonzero"/><g mask="url(#7fad979f3c)"><g transform="matrix(1, 0, 0, 1, 270, 69)"><g clip-path="url(#3ef5f150a4)"><g clip-path="url(#f748e0099c)"><path fill="#4e7666" d="M 0.527344 5.429688 C 0.527344 8.042969 2.644531 10.160156 5.257812 10.160156 C 7.867188 10.160156 9.984375 8.042969 9.984375 5.429688 C 9.984375 2.820312 7.867188 0.703125 5.257812 0.703125 C 2.644531 0.703125 0.527344 2.820312 0.527344 5.429688 Z M 0.527344 5.429688 " fill-opacity="1" fill-rule="nonzero"/></g></g></g></g><path fill="#b4d8ca" d="M 46.773438 127.644531 C 39.265625 149.234375 42.828125 180.539062 50.101562 205.636719 C 51.179688 209.375 54.449219 211.980469 58.3125 212.222656 C 60.484375 212.363281 62.566406 212.320312 64.570312 212.097656 C 71.988281 211.277344 78.242188 208.007812 83.425781 202.488281 C 84.5625 201.273438 85.367188 199.78125 85.773438 198.171875 C 92.125 172.992188 92.792969 149.125 84.742188 127.273438 C 84.046875 125.386719 82.738281 123.8125 81.054688 122.746094 C 74.46875 118.558594 67.433594 117.421875 59.992188 119.113281 C 57.289062 119.726562 54.535156 120.707031 51.726562 122.054688 C 49.402344 123.167969 47.625 125.195312 46.773438 127.644531 Z M 46.773438 127.644531 " fill-opacity="1" fill-rule="nonzero"/><path fill="#4e7666" d="M 46.773438 127.644531 C 39.265625 149.234375 42.828125 180.539062 50.101562 205.636719 C 51.179688 209.375 54.449219 211.980469 58.3125 212.222656 C 60.484375 212.363281 62.566406 212.320312 64.570312 212.097656 C 57.886719 184.152344 55.078125 153.910156 59.992188 119.113281 C 57.289062 119.726562 54.535156 120.707031 51.726562 122.054688 C 49.402344 123.167969 47.625 125.195312 46.773438 127.644531 Z M 46.773438 127.644531 " fill-opacity="1" fill-rule="nonzero"/><path fill="#4e7666" d="M 85.871094 95.011719 C 89.230469 92.921875 92.636719 91.15625 96.230469 90.75 C 97.363281 90.621094 98.53125 90.757812 99.535156 91.300781 C 105.085938 94.308594 102.46875 105.246094 96.335938 107.78125 C 91.136719 109.644531 86.414062 109.878906 82.007812 109.019531 C 82.007812 109.019531 85.871094 95.011719 85.871094 95.011719 Z M 85.871094 95.011719 " fill-opacity="1" fill-rule="nonzero"/><path fill="#4e7666" d="M 73.757812 87.773438 C 75.230469 78.59375 76.824219 71.433594 78.539062 66.453125 C 80.148438 61.785156 85.75 59.691406 89.859375 62.429688 C 89.988281 62.519531 90.117188 62.609375 90.246094 62.707031 C 92.003906 64.046875 92.898438 66.246094 92.738281 68.457031 C 92.308594 74.511719 88.820312 83.285156 84.34375 92.933594 C 84.34375 92.933594 73.757812 87.773438 73.757812 87.773438 Z M 73.757812 87.773438 " fill-opacity="1" fill-rule="nonzero"/><path fill="#4e7666" d="M 58.992188 87.46875 C 58.460938 79.207031 57.863281 70.789062 58.410156 65.003906 C 58.710938 61.851562 60.574219 58.996094 63.445312 57.660156 C 65.320312 56.785156 67.167969 56.765625 68.988281 57.679688 C 71.425781 58.902344 72.890625 61.476562 72.917969 64.203125 C 72.980469 70.351562 71.632812 78.613281 70.082031 87.179688 C 70.082031 87.179688 58.992188 87.46875 58.992188 87.46875 Z M 58.992188 87.46875 " fill-opacity="1" fill-rule="nonzero"/><path fill="#4e7666" d="M 55.441406 88.300781 C 55.378906 82.863281 55.292969 77.480469 54.429688 73.828125 C 53.808594 71.207031 51.75 69.097656 49.101562 68.636719 C 47.285156 68.320312 45.785156 68.847656 44.585938 70.175781 C 43.410156 71.476562 42.871094 73.242188 43.003906 74.992188 C 43.476562 81.128906 45.457031 87.066406 47.964844 92.933594 C 47.964844 92.933594 55.441406 88.300781 55.441406 88.300781 Z M 55.441406 88.300781 " fill-opacity="1" fill-rule="nonzero"/><path fill="#4e7666" d="M 47.964844 92.933594 C 53.957031 84.441406 80.359375 84.796875 85.871094 95.011719 C 84.101562 111.117188 77.265625 119.039062 64.285156 117.035156 C 51.078125 115.886719 45.808594 107.703125 47.964844 92.933594 Z M 47.964844 92.933594 " fill-opacity="1" fill-rule="nonzero"/></svg>